/* XPM */
static char *_3101ba8c4c6400a88ff4c13b30b5e2cXgHxTG0dgUxJwxBv[] = {
/* columns rows colors chars-per-pixel */
"16 16 73 1 ",
"  c None",
". c black",
"X c #010101",
"o c #000202",
"O c gray1",
"+ c gray2",
"@ c #060606",
"# c #1D1D1D",
"$ c #1E1E1E",
"% c #370037",
"& c gray13",
"* c gray14",
"= c #252525",
"- c #282828",
"; c #2C2C2C",
": c #2D2D2D",
"> c gray19",
", c #323232",
"< c #343434",
"1 c #353535",
"2 c gray22",
"3 c #393939",
"4 c #3A3A3A",
"5 c gray23",
"6 c #3C3C3C",
"7 c #3F3F3F",
"8 c #410041",
"9 c #570057",
"0 c #610061",
"q c #027C7C",
"w c #414141",
"e c #464646",
"r c #4C4C4C",
"t c gray30",
"y c gray31",
"u c #515151",
"i c #555555",
"p c #565656",
"a c gray35",
"s c #5D5D5D",
"d c #676767",
"f c #6D6D6D",
"g c gray44",
"h c #810081",
"j c #800680",
"k c #8B478B",
"l c #BC72BC",
"z c #C47BC4",
"x c #068484",
"c c #649C9C",
"v c #6EB6B6",
"b c #72B4B4",
"n c #7BB5B5",
"m c #7DB6B6",
"M c #7DBDBD",
"N c #BD83BD",
"B c #BE93BF",
"V c #B7B1BC",
"C c #9B9EC5",
"Z c #A7BCDB",
"A c #B3B8D9",
"S c #CF98CF",
"D c #CEA2CE",
"F c #BCD2D3",
"G c #DBDEFB",
"H c #C7EAEA",
"J c #DBFEFE",
"K c #EBE3FA",
"L c #E0EBFF",
"P c #FDEAFD",
"I c #FFFDFF",
"U c #FFFEFF",
"Y c white",
/* pixels */
"     ie2212     ",
"   a2......&w   ",
"  s+.........2  ",
" f+.&mMMMvq..+  ",
" w..NYYYYYJx..- ",
"d...zYYYYYYb...t",
"u...9jCAKYYn...6",
"i....BYYYYYc...2",
"u....lYYYPV....2",
"t....kLGZ8.....2",
"g....DYYH......u",
" 6...SYYF.....= ",
"  #..0hh%....+  ",
"  w+.........6  ",
"    -......#    ",
"     2>;;>1     "
};
