/* XPM */
static char *e8c7905672394ec2e4cb6b89ff45c858FfieQ5hFJmsmRN6N[] = {
/* columns rows colors chars-per-pixel */
"64 64 158 2 ",
"   c None",
".  c #000000",
"X  c #000C0C",
"o  c #0C0C0C",
"O  c #090009",
"+  c #130013",
"@  c #1C001C",
"#  c #001212",
"$  c #001F1F",
"%  c #131313",
"&  c #1B1B1B",
"*  c #200320",
"=  c #2A002A",
"-  c #2A162A",
";  c #3A003A",
":  c #360036",
">  c #38123D",
",  c #002323",
"<  c #002828",
"1  c #003636",
"2  c #083133",
"3  c gray14",
"4  c #2B2B2B",
"5  c #333434",
"6  c #3C3C3C",
"7  c #33383A",
"8  c #38324C",
"9  c #420042",
"0  c #660066",
"q  c #6C006C",
"w  c #720072",
"e  c #7A007A",
"r  c #004444",
"t  c #004D4D",
"y  c #124141",
"u  c #005252",
"i  c #385162",
"p  c #006B6B",
"a  c #39717D",
"s  c #434343",
"d  c #4A4A4A",
"f  c #545454",
"g  c #5C5C5C",
"h  c #4E696C",
"j  c #636363",
"k  c #6B6B6B",
"l  c #747474",
"z  c #7C7C7C",
"x  c #736B83",
"c  c #8F008F",
"v  c #850E85",
"b  c #9B009B",
"n  c #910091",
"m  c #A000A0",
"M  c #AD00AD",
"N  c #BC00BC",
"B  c #8D6D8D",
"V  c #9777A2",
"C  c #CD00CD",
"Z  c #C51BC5",
"A  c #D600D6",
"S  c #D412D4",
"D  c #E700E7",
"F  c #E800E8",
"G  c #F204F2",
"H  c #FD0DFD",
"J  c #F30BF3",
"K  c #F31CF3",
"L  c #FB14FB",
"P  c #E22AE2",
"I  c #F22CF2",
"U  c #F52AF5",
"Y  c #FE33FE",
"T  c #C342C3",
"R  c #DB50DB",
"E  c #EF47EF",
"W  c #FF44FF",
"Q  c #FE4AFE",
"!  c #FF50FF",
"~  c #FB6FFB",
"^  c #FF71FF",
"/  c #008E8E",
"(  c #009696",
")  c #009F9F",
"_  c #00A8A8",
"`  c #16A3A4",
"'  c #00B8B8",
"]  c #00B2B2",
"[  c #2AB3B3",
"{  c #32B9BE",
"}  c #6596B0",
"|  c #5FB9CC",
" . c #00C7C7",
".. c #03CACA",
"X. c #00DBDB",
"o. c #1BDFDF",
"O. c #02E4E4",
"+. c #04EEEE",
"@. c #05F0F0",
"#. c #04FCFC",
"$. c #0EFEFE",
"%. c #18F4F4",
"&. c #37EFEF",
"*. c #2CF9F9",
"=. c #2AF6F6",
"-. c #71C5C5",
";. c #6BD2D2",
":. c #48FFFF",
">. c #59FFFF",
",. c #53F7F7",
"<. c #66FFFF",
"1. c #7BFEFE",
"2. c #838383",
"3. c #8D8D8D",
"4. c #949494",
"5. c #9B9B9B",
"6. c #BE88BF",
"7. c #A3A3A3",
"8. c #AAA9AA",
"9. c #82B9DB",
"0. c #ABBAD3",
"q. c #9DB9EA",
"w. c #B6BCFE",
"e. c #BDB2FB",
"r. c #FF81FF",
"t. c #FC8AFC",
"y. c #FF99FF",
"u. c #DCA1FF",
"i. c #FFA2FF",
"p. c #FFADFF",
"a. c #F4A1F4",
"s. c #FFB5FF",
"d. c #FFBCFF",
"f. c #B6C5C6",
"g. c #BACAFF",
"h. c #87FFFF",
"j. c #88F1F1",
"k. c #9DFFFF",
"l. c #A5FEFF",
"z. c #B3FFFF",
"x. c #BBFFFF",
"c. c #FFC6FF",
"v. c #FFC9FF",
"b. c #FED5FE",
"n. c #FFDDFF",
"m. c #C5FFFF",
"M. c #CDFFFF",
"N. c #DCFFFF",
"B. c #E7E6FC",
"V. c #FFECFF",
"C. c #FFE3FF",
"Z. c #E1FFFF",
"A. c #EDFFFF",
"S. c #E5F3F3",
"D. c #F7F4F7",
"F. c #FFF6FF",
"G. c #F3FFFF",
"H. c #FFFFFF",
/* pixels */
"                                                              k j                                                               ",
"                                                  2.k f f 4 % . . % 3 g 5 s g                                                   ",
"                                            z k 4 . . . . . . . . . . . . . . % d s                                             ",
"                                      4.k % . . . . . . . . . . . . . . . . . . . . . 4 f                                       ",
"                                  3.f . . . . . . . . . . . . . . . . . . . . . . . . . . & d                                   ",
"                              5.k . . . . . . . . . . . . . . . . . . . . . . . . . . . . . . 4                                 ",
"                            2.3 . . . . . . . . . . . . . . . . . . . . . . . . . . . . . . . . o d                             ",
"                          j . . . . . . . . . . . . . . . . . . . . . . . . . . . . . . . . . . . . 4                           ",
"                      4.d . . . . . . . . . . . . . . . . . . . . . . . . . . . . . . . . . . . . . . &                         ",
"                    8.6 . . . . . . . . . . . . . . . . . . . . . . . . . . . . . . . . . . . . . . . . %                       ",
"                  7.5 . . . . . . . . . . . . . . . . . . . . . . . . . . . . . . . . . . . . . . . . . . o                     ",
"                4.6 . . . . . . . . . . . . . . . . . . . . . . . . . . . . . . . . . . . . . . . . . . . . &                   ",
"                f . . . . . . . . . . . . . . . . . . . . . . . . . . . . . . . . . . . . . . . . . . . . . . 3                 ",
"              l . . . . . . . . . . . . X r u t u u u u u u u u u u u u t r < # . . . . . . . . . . . . . . . . 5               ",
"            2.% . . . . . . . . . . . % [ *.*.*.*.*.*.*.*.*.*.*.*.*.*.*.*.%.+.X.' p # . . . . . . . . . . . . . . g             ",
"          7.6 . . . . . . . . . . . % 5.S.A.A.A.A.A.A.A.A.A.A.A.A.A.A.A.Z.Z.M.k.:.#. .t . . . . . . . . . . . . . o             ",
"          l . . . . . . . . . . . = T D.H.H.H.H.H.H.H.H.H.H.H.H.H.H.H.H.H.H.H.H.A.l.*.O.u . . . . . . . . . . . . . 6           ",
"        7.& . . . . . . . . . . . q Q F.H.H.H.H.H.H.H.H.H.H.H.H.H.H.H.H.H.H.H.H.H.H.m.*.X.< . . . . . . . . . . . . o           ",
"        l . . . . . . . . . . . . w Q F.H.H.H.H.H.H.H.H.H.H.H.H.H.H.H.H.H.H.H.H.H.H.H.z.#./ . . . . . . . . . . . . . 5         ",
"      4.3 . . . . . . . . . . . . w Q F.H.H.H.H.H.H.H.H.H.H.H.H.H.H.H.H.H.H.H.H.H.H.H.G.>...X . . . . . . . . . . . . o         ",
"      l . . . . . . . . . . . . . w Q F.H.H.H.H.H.H.H.H.H.H.H.H.H.H.H.H.H.H.H.H.H.H.H.H.l.O., . . . . . . . . . . . . . s       ",
"      d . . . . . . . . . . . . . w Q F.H.H.H.H.H.H.H.H.H.H.H.H.H.H.H.H.H.H.H.H.H.H.H.H.M.@.1 . . . . . . . . . . . . . &       ",
"    2.o . . . . . . . . . . . . . w W F.H.H.H.H.H.H.H.H.H.H.H.H.H.H.H.H.H.H.H.H.H.H.H.H.N.@.1 . . . . . . . . . . . . . . g     ",
"    k . . . . . . . . . . . . . . q H s.V.V.V.V.V.V.V.V.V.V.V.V.V.F.H.H.H.H.H.H.H.H.H.H.Z.@.1 . . . . . . . . . . . . . . 6     ",
"    f . . . . . . . . . . . . . . ; A G I I I I I I I I I I I I U W n.H.H.H.H.H.H.H.H.H.Z.@.1 . . . . . . . . . . . . . . 3     ",
"    3 . . . . . . . . . . . . . . . @ : ; ; ; ; : ; : ; > 8 i a } e.B.H.H.H.H.H.H.H.H.H.Z.@.1 . . . . . . . . . . . . . . .     ",
"  4.o . . . . . . . . . . . . . . . . . . . . . u ( ] ..o.&.,.1.l.m.G.H.H.H.H.H.H.H.H.H.N.@.1 . . . . . . . . . . . . . . . f   ",
"  2.. . . . . . . . . . . . . . . . . . . . . h j.l.x.M.Z.A.H.H.H.H.H.H.H.H.H.H.H.H.H.H.Z.+.1 . . . . . . . . . . . . . . . d   ",
"  l . . . . . . . . . . . . . . . . . . . O l B.H.H.H.H.H.H.H.H.H.H.H.H.H.H.H.H.H.H.H.H.N.O.$ . . . . . . . . . . . . . . . s   ",
"  f . . . . . . . . . . . . . . . . . . . n a.H.H.H.H.H.H.H.H.H.H.H.H.H.H.H.H.H.H.H.H.H.M...X . . . . . . . . . . . . . . . 6   ",
"  g . . . . . . . . . . . . . . . . . . . C r.H.H.H.H.H.H.H.H.H.H.H.H.H.H.H.H.H.H.H.H.H.z./ . . . . . . . . . . . . . . . . 4   ",
"  z . . . . . . . . . . . . . . . . . . . M ! F.H.H.H.H.H.H.H.H.H.H.H.H.H.H.H.H.H.H.H.H.;., . . . . . . . . . . . . . . . . 4   ",
"  l . . . . . . . . . . . . . . . . . . . c Y V.H.H.H.H.H.H.H.H.H.H.H.H.H.H.H.H.H.H.H.f.y . . . . . . . . . . . . . . . . . 4   ",
"  d . . . . . . . . . . . . . . . . . . . 0 L n.H.H.H.H.H.H.H.H.H.H.H.H.H.H.H.H.H.F.0.7 . . . . . . . . . . . . . . . . . . 5   ",
"  j . . . . . . . . . . . . . . . . . . . 9 G c.H.H.H.H.H.H.H.H.H.H.H.H.H.H.F.F.b.6.- . . . . . . . . . . . . . . . . . . . 6   ",
"  z . . . . . . . . . . . . . . . . . . . * D p.H.H.H.H.H.H.H.H.H.F.V.n.v.p.t.R v + . . . . . . . . . . . . . . . . . . . . s   ",
"  2.. . . . . . . . . . . . . . . . . . . O C ^ F.F.F.C.b.d.i.t.^ E P S N b 0 @ . . . . . . . . . . . . . . . . . . . . . . d   ",
"  3.. . . . . . . . . . . . . . . . . . . . b H u.g.w.w.w.w.q.9.| { ` 2 . . . . . . . . . . . . . . . . . . . . . . . . . . f   ",
"    5 . . . . . . . . . . . . . . . . . . . - V l.k.k.l.k.k.k.k.k.1.$.( . . . . . . . . . . . . . . . . . . . . . . . . . .     ",
"    g . . . . . . . . . . . . . . . . . . @ B D.H.H.H.H.H.H.H.H.H.G.<._ . . . . . . . . . . . . . . . . . . . . . . . . . 3     ",
"    k . . . . . . . . . . . . . . . . . . m i.H.H.H.H.H.H.H.H.H.H.H.h._ . . . . . . . . . . . . . . . . . . . . . . . . . 6     ",
"    4.& . . . . . . . . . . . . . . . . . N i.H.H.H.H.H.H.H.H.H.H.H.h._ . . . . . . . . . . . . . . . . . . . . . . . . . g     ",
"      j . . . . . . . . . . . . . . . . . N i.H.H.H.H.H.H.H.H.H.H.H.h._ . . . . . . . . . . . . . . . . . . . . . . . . &       ",
"      l . . . . . . . . . . . . . . . . O N i.H.H.H.H.H.H.H.H.H.H.H.h._ . . . . . . . . . . . . . . . . . . . . . . . . s       ",
"        6 . . . . . . . . . . . . . . . . N i.H.H.H.H.H.H.H.H.H.H.H.h._ . . . . . . . . . . . . . . . . . . . . . . . o         ",
"        l . . . . . . . . . . . . . . . . N i.H.H.H.H.H.H.H.H.H.H.H.h.) . . . . . . . . . . . . . . . . . . . . . . . 5         ",
"        5.5 . . . . . . . . . . . . . . . N y.H.H.H.H.H.H.H.H.H.H.F.-.t . . . . . . . . . . . . . . . . . . . . . . o           ",
"          z . . . . . . . . . . . . . . . N W b.C.V.V.C.V.V.V.V.V.8.4 . . . . . . . . . . . . . . . . . . . . . . . 6           ",
"            s . . . . . . . . . . . . . . e F J K K K K K K K K Z * . . . . . . . . . . . . . . . . . . . . . . . o             ",
"            3.& . . . . . . . . . . . . . . = ; ; ; ; 9 ; ; ; ; + . . . . . . . . . . . . . . . . . . . . . . . . f             ",
"              k . . . . . . . . . . . . . . . . . . . . . . . . . . . . . . . . . . . . . . . . . . . . . . . . 6               ",
"                f . . . . . . . . . . . . . . . . . . . . . . . . . . . . . . . . . . . . . . . . . . . . . . 4                 ",
"                  f . . . . . . . . . . . . . . . . . . . . . . . . . . . . . . . . . . . . . . . . . . . . %                   ",
"                    4 . . . . . . . . . . . . . . . . . . . . . . . . . . . . . . . . . . . . . . . . . . %                     ",
"                      f . . . . . . . . . . . . . . . . . . . . . . . . . . . . . . . . . . . . . . . . %                       ",
"                        6 . . . . . . . . . . . . . . . . . . . . . . . . . . . . . . . . . . . . . . &                         ",
"                          5 . . . . . . . . . . . . . . . . . . . . . . . . . . . . . . . . . . . . 4                           ",
"                            s & . . . . . . . . . . . . . . . . . . . . . . . . . . . . . . . . . s                             ",
"                                d . . . . . . . . . . . . . . . . . . . . . . . . . . . . . . 4                                 ",
"                                    5 . . . . . . . . . . . . . . . . . . . . . . . . . . 3 d                                   ",
"                                      f 4 . . . . . . . . . . . . . . . . . . . . . . 4 d                                       ",
"                                            s 4 . . . . . . . . . . . . . . . . & 6                                             ",
"                                                    s 6 4 3 o . . . 3 3 s 6                                                     ",
"                                                              f g                                                               "
};
