/* XPM */
static char *_f749b5d54d147b3aa97da2d9425014bbxGiEpy9Y529iy24[] = {
/* columns rows colors chars-per-pixel */
"32 32 159 2 ",
"   c None",
".  c black",
"X  c #000101",
"o  c gray1",
"O  c #000707",
"+  c #040404",
"@  c #070707",
"#  c #080008",
"$  c #000909",
"%  c gray3",
"&  c #090909",
"*  c gray4",
"=  c #0B0B0B",
"-  c gray5",
";  c #0E0E0E",
":  c #110311",
">  c #170017",
",  c #001717",
"<  c #031C1C",
"1  c #001E1E",
"2  c #001F1F",
"3  c gray7",
"4  c gray8",
"5  c gray9",
"6  c #181818",
"7  c #1B1B1B",
"8  c #200020",
"9  c #330033",
"0  c #380038",
"q  c #3E003E",
"w  c #002121",
"e  c #003131",
"r  c #003838",
"t  c #252525",
"y  c gray15",
"u  c #272727",
"i  c #282828",
"p  c gray17",
"a  c gray18",
"s  c #273535",
"d  c gray19",
"f  c #343434",
"g  c #353535",
"h  c #373737",
"j  c gray22",
"k  c #3A3A3A",
"l  c #3C3C3C",
"z  c #3E3E3E",
"x  c #3F3F3F",
"c  c #4B004B",
"v  c #4F004F",
"b  c #510051",
"n  c #590059",
"m  c #6B026B",
"M  c #7C007C",
"N  c #7F007F",
"B  c #007070",
"V  c #007C7C",
"C  c #3B6F6F",
"Z  c gray25",
"A  c #434343",
"S  c #484848",
"D  c #494949",
"F  c gray29",
"G  c #4B4B4B",
"H  c #4C4C4C",
"J  c gray30",
"K  c #4E4E4E",
"L  c #505050",
"P  c #515151",
"I  c gray32",
"U  c gray33",
"Y  c #555555",
"T  c gray37",
"R  c gray39",
"E  c #656565",
"W  c gray40",
"Q  c DimGray",
"!  c gray42",
"~  c gray43",
"^  c #6F6F6F",
"/  c #727272",
"(  c gray45",
")  c #747474",
"_  c gray46",
"`  c #767676",
"'  c gray48",
"]  c #7B7B7B",
"[  c #850085",
"{  c #890089",
"}  c #8A008A",
"|  c #AA00AA",
" . c #B300B3",
".. c #B703B7",
"X. c #B615B6",
"o. c #B617B6",
"O. c #B621B7",
"+. c #A15AB4",
"@. c #DF39DF",
"#. c #B649C0",
"$. c #D27CEB",
"%. c #6AB8B8",
"&. c #20D2D2",
"*. c #2BDCDC",
"=. c #34D6D6",
"-. c #6EC6C6",
";. c #61D8D8",
":. c #61DADA",
">. c #6DF9F9",
",. c #848484",
"<. c #A799A9",
"1. c #B084B0",
"2. c #BA94DF",
"3. c #B6BEC5",
"4. c #F687F6",
"5. c #D1A9F1",
"6. c #FFA2FF",
"7. c #FEACFE",
"8. c #F0B9F0",
"9. c #FFBBFF",
"0. c #FFBCFF",
"q. c #90E3E3",
"w. c #9DEDED",
"e. c #82F3F3",
"r. c #87F5F5",
"t. c #ADE8E8",
"y. c #A7F7F7",
"u. c #A4F8F8",
"i. c #A7F8F8",
"p. c #A9FBFB",
"a. c #B0F3F3",
"s. c #B0FCFC",
"d. c #B1FCFC",
"f. c #DCC7E4",
"g. c #DEC1FD",
"h. c #DFD5FF",
"j. c #F6C5F6",
"k. c #FFC5FF",
"l. c #E7DAFF",
"z. c #FFD7FF",
"x. c #C4FDFD",
"c. c #CEFFFF",
"v. c #D5FFFF",
"b. c #D6FEFF",
"n. c #DEFFFF",
"m. c #EDE8ED",
"M. c #FFE2FF",
"N. c #E8FFFF",
"B. c #EDFFFF",
"V. c #FAF1FF",
"C. c #FFF2FF",
"Z. c #FFF5FF",
"A. c #FFF6FF",
"S. c #FFF7FF",
"D. c #FFFCFF",
"F. c #FDFFFF",
"G. c #FEFEFF",
"H. c #FEFFFF",
"J. c white",
/* pixels */
"                          W Y l A Y S                           ",
"                    T H = . . . . . . + a h                     ",
"                W p . . . . . . . . . . . . = h                 ",
"            ] A . . . . . . . . . . . . . . . . 5               ",
"          ] t . . . . . . . . . . . . . . . . . . = S           ",
"        ` 5 . . . . . . . . . . . . . . . . . . . . + H         ",
"        p . . . . . 1 r r r r r r r e $ . . . . . . . =         ",
"      S . . . . . P t.d.d.d.d.d.d.d.p.e.&.B . . . . . . 7       ",
"    ` . . . . . 0 8.J.J.J.J.J.J.J.J.J.J.N.>.V . . . . . . S     ",
"    l . . . . . b 0.J.J.J.J.J.J.J.J.J.J.J.B.*.. . . . . . 3     ",
"  / . . . . . . b 9.J.J.J.J.J.J.J.J.J.J.J.J.r., . . . . . . H   ",
"  H . . . . . . v 6.A.A.A.A.A.A.A.J.J.J.J.J.u.w . . . . . . p   ",
"  a . . . . . . > | X.X.o.o.O.#.$.V.J.J.J.J.y.w . . . . . . =   ",
",.. . . . . . . . . . s -.q.a.x.n.J.J.J.J.J.y.1 . . . . . . .   ",
"~ . . . . . . . . . c f.J.J.J.J.J.J.J.J.J.J.w.$ . . . . . . . Q ",
"~ . . . . . . . . . [ k.J.J.J.J.J.J.J.J.J.J.%.. . . . . . . . S ",
"Q . . . . . . . . . n 7.J.J.J.J.J.J.J.J.J.3.< . . . . . . . . H ",
"` . . . . . . . . . 8 4.J.J.J.J.J.C.M.j.1.: . . . . . . . . . R ",
"  . . . . . . . . . . @.l.h.g.5.2.+.M 9 . . . . . . . . . . .   ",
"  h . . . . . . . . # <.v.v.v.v.c.=.. . . . . . . . . . . . =   ",
"  Y . . . . . . . . N z.J.J.J.J.J.:.. . . . . . . . . . . . p   ",
"  / . . . . . . . . } z.J.J.J.J.J.:.. . . . . . . . . . . . P   ",
"    l . . . . . . . } z.J.J.J.J.J.:.. . . . . . . . . . . 3     ",
"    / . . . . . . . } 0.C.A.A.A.m.C . . . . . . . . . . . S     ",
"      S . . . . . . q  .........m . . . . . . . . . . . 7       ",
"        t . . . . . . . . . . . . . . . . . . . . . . =         ",
"        ~ ; . . . . . . . . . . . . . . . . . . . . + P         ",
"          / 7 . . . . . . . . . . . . . . . . . . + H           ",
"              7 . . . . . . . . . . . . . . . . 5               ",
"                A ; . . . . . . . . . . . . = h                 ",
"                    j 7 . . . . . . . . 7 j                     ",
"                            P l l H                             "
};
